<svg width="48" height="48" viewBox="0 0 48 48" fill="none" xmlns="http://www.w3.org/2000/svg">
<circle cx="24" cy="24" r="24" fill="#F6F6F6"/>
<mask id="mask0_2469_2004" style="mask-type:luminance" maskUnits="userSpaceOnUse" x="14" y="13" width="20" height="22">
<path d="M34 13H14V34.8317H34V13Z" fill="white"/>
</mask>
<g mask="url(#mask0_2469_2004)">
<path d="M23.801 24.7976C20.5422 24.7976 17.8984 22.1565 17.8984 18.895C17.8984 15.6336 20.5395 12.9951 23.801 12.9951C27.0624 12.9951 29.7035 15.6362 29.7035 18.8977C29.7035 22.1591 27.0624 24.8002 23.801 24.8002V24.7976ZM23.801 14.3476C21.2903 14.3476 19.2536 16.3844 19.2536 18.895C19.2536 21.4057 21.2903 23.4424 23.801 23.4424C26.3116 23.4424 28.3484 21.4057 28.3484 18.895C28.3404 16.387 26.309 14.3556 23.801 14.3476Z" fill="#202B4B"/>
</g>
<path d="M24.1709 23.3838C26.7667 23.3838 29.2564 24.4139 31.0908 26.251C32.9252 28.0854 33.958 30.5751 33.958 33.1709L33.9844 34.7471L33.9873 34.749H26.7178C26.6324 34.7865 26.538 34.8076 26.4385 34.8076V34.749H14V33.2295C14 30.6284 15.0354 28.1359 16.875 26.2988C18.7173 24.4618 21.2124 23.4344 23.8135 23.4424C23.8359 23.4424 23.858 23.4461 23.8799 23.4482C23.9684 23.4073 24.0667 23.3838 24.1709 23.3838ZM24.1045 24.7607C24.0159 24.8018 23.9178 24.8262 23.8135 24.8262C19.1597 24.8342 15.3898 28.605 15.3818 33.2588V33.4238H21.2676C21.3528 33.3865 21.4466 33.3652 21.5459 33.3652H32.6025V33.2002C32.5946 28.5463 28.8248 24.7756 24.1709 24.7676C24.1484 24.7676 24.1265 24.7629 24.1045 24.7607Z" fill="#202B4B"/>
</svg>
