<svg width="48" height="48" viewBox="0 0 48 48" fill="none" xmlns="http://www.w3.org/2000/svg">
<circle cx="24" cy="24" r="24" fill="#F6F6F6"/>
<mask id="mask0_2469_1934" style="mask-type:luminance" maskUnits="userSpaceOnUse" x="13" y="13" width="22" height="23">
<path d="M35 13H13V35.0032H35V13Z" fill="white"/>
</mask>
<g mask="url(#mask0_2469_1934)">
<path d="M15.7439 22.6223C14.9851 22.6223 14.37 23.237 14.37 23.9949V32.2308C14.37 32.989 14.9851 33.6035 15.7439 33.6035H32.2311C32.9899 33.6035 33.605 32.989 33.605 32.2308V23.9949C33.605 23.2367 32.9899 22.6223 32.2311 22.6223H15.7439ZM15.7439 21.2496H32.2311C33.7486 21.2496 34.9789 22.4788 34.9789 23.9949V32.2308C34.9789 33.7469 33.7488 34.9761 32.2311 34.9761H15.7439C14.2265 34.9761 12.9961 33.7472 12.9961 32.2308V23.9949C12.9961 22.4786 14.2265 21.2496 15.7439 21.2496ZM28.1093 21.2496V18.5043C28.1093 16.23 26.2639 14.3863 23.9875 14.3863C21.7111 14.3863 19.8657 16.23 19.8657 18.5043V21.2496H18.4918V18.5043C18.4918 15.4718 20.9523 13.0137 23.9875 13.0137C27.0228 13.0137 29.4832 15.4718 29.4832 18.5043V21.2496H28.1093ZM28.1093 21.2496V18.5043C28.1093 16.23 26.2639 14.3863 23.9875 14.3863C21.7111 14.3863 19.8657 16.23 19.8657 18.5043V21.2496H18.4918V18.5043C18.4918 15.4718 20.9523 13.0137 23.9875 13.0137C27.0228 13.0137 29.4832 15.4718 29.4832 18.5043V21.2496H28.1093Z" fill="#202B4B"/>
</g>
<path d="M24.6747 30.1717C24.6747 30.5508 24.3672 30.858 23.9877 30.858C23.6083 30.858 23.3008 30.5508 23.3008 30.1717V26.74C23.3008 26.3609 23.6083 26.0537 23.9877 26.0537C24.3672 26.0537 24.6747 26.3609 24.6747 26.74V30.1717Z" fill="#202B4B"/>
</svg>
