<svg width="48" height="48" viewBox="0 0 48 48" fill="none" xmlns="http://www.w3.org/2000/svg">
<circle cx="24" cy="24" r="24" fill="#191919"/>
<mask id="mask0_1826_1267" style="mask-type:luminance" maskUnits="userSpaceOnUse" x="13" y="13" width="22" height="23">
<path d="M35 13H13V35.0032H35V13Z" fill="white"/>
<path d="M34.5 13.5V34.5029H13.5V13.5H34.5Z" stroke="white"/>
</mask>
<g mask="url(#mask0_1826_1267)">
<path d="M15.7439 22.6223C14.9851 22.6223 14.37 23.237 14.37 23.9949V32.2308C14.37 32.989 14.9851 33.6035 15.7439 33.6035H32.2311C32.9899 33.6035 33.605 32.989 33.605 32.2308V23.9949C33.605 23.2367 32.9899 22.6223 32.2311 22.6223H15.7439ZM15.7439 21.2496H32.2311C33.7486 21.2496 34.9789 22.4788 34.9789 23.9949V32.2308C34.9789 33.7469 33.7488 34.9761 32.2311 34.9761H15.7439C14.2265 34.9761 12.9961 33.7472 12.9961 32.2308V23.9949C12.9961 22.4786 14.2265 21.2496 15.7439 21.2496ZM28.1093 21.2496V18.5043C28.1093 16.23 26.2639 14.3863 23.9875 14.3863C21.7111 14.3863 19.8657 16.23 19.8657 18.5043V21.2496H18.4918V18.5043C18.4918 15.4718 20.9523 13.0137 23.9875 13.0137C27.0228 13.0137 29.4832 15.4718 29.4832 18.5043V21.2496H28.1093ZM28.1093 21.2496V18.5043C28.1093 16.23 26.2639 14.3863 23.9875 14.3863C21.7111 14.3863 19.8657 16.23 19.8657 18.5043V21.2496H18.4918V18.5043C18.4918 15.4718 20.9523 13.0137 23.9875 13.0137C27.0228 13.0137 29.4832 15.4718 29.4832 18.5043V21.2496H28.1093Z" fill="#BBBBBB"/>
<path d="M15.7441 21.75H32.2314C33.4731 21.7502 34.4785 22.7557 34.4785 23.9951V32.2305C34.4785 33.4699 33.4733 34.4764 32.2314 34.4766H15.7441C14.5023 34.4766 13.4961 33.4702 13.4961 32.2305V23.9951C13.4961 22.7554 14.5023 21.75 15.7441 21.75ZM15.7441 22.1221C14.7095 22.1221 13.8701 22.9607 13.8701 23.9951V32.2305C13.8701 33.2652 14.7096 34.1035 15.7441 34.1035H32.2314C33.2659 34.1033 34.1055 33.2651 34.1055 32.2305V23.9951C34.1055 22.9605 33.2659 22.1223 32.2314 22.1221H15.7441ZM23.9873 13.5137C26.7467 13.5137 28.9832 15.7482 28.9834 18.5039V20.75H28.6094V18.5039C28.6092 15.9532 26.5393 13.8867 23.9873 13.8867C21.4354 13.8868 19.3664 15.9533 19.3662 18.5039V20.75H18.9922V18.5039C18.9924 15.7483 21.228 13.5138 23.9873 13.5137Z" stroke="url(#paint0_linear_1826_1267)" stroke-opacity="0.5"/>
</g>
<path d="M24.6747 30.1707C24.6747 30.5498 24.3672 30.857 23.9877 30.857C23.6083 30.857 23.3008 30.5498 23.3008 30.1707V26.7391C23.3008 26.36 23.6083 26.0527 23.9877 26.0527C24.3672 26.0527 24.6747 26.36 24.6747 26.7391V30.1707Z" fill="#BBBBBB"/>
<path d="M23.9873 26.5527C24.091 26.5527 24.1748 26.6367 24.1748 26.7393V30.1709C24.1747 30.2733 24.091 30.3574 23.9873 30.3574C23.8838 30.3572 23.8009 30.2732 23.8008 30.1709V26.7393L23.8154 26.667C23.8436 26.6002 23.9096 26.5529 23.9873 26.5527Z" stroke="url(#paint1_linear_1826_1267)" stroke-opacity="0.5"/>
<defs>
<linearGradient id="paint0_linear_1826_1267" x1="12.9961" y1="23.9949" x2="34.9789" y2="23.9949" gradientUnits="userSpaceOnUse">
<stop offset="0.246429" stop-color="#505050"/>
<stop offset="0.5" stop-color="white"/>
<stop offset="0.741071" stop-color="#505050"/>
</linearGradient>
<linearGradient id="paint1_linear_1826_1267" x1="23.3008" y1="28.4549" x2="24.6747" y2="28.4549" gradientUnits="userSpaceOnUse">
<stop offset="0.246429" stop-color="#505050"/>
<stop offset="0.5" stop-color="white"/>
<stop offset="0.741071" stop-color="#505050"/>
</linearGradient>
</defs>
</svg>
