<svg width="48" height="48" viewBox="0 0 48 48" fill="none" xmlns="http://www.w3.org/2000/svg">
<circle cx="24" cy="24" r="24" fill="#F6F6F6"/>
<mask id="mask0_2469_1994" style="mask-type:luminance" maskUnits="userSpaceOnUse" x="15" y="15" width="18" height="19">
<path d="M33 15H15V33.4932H33V15Z" fill="white"/>
</mask>
<g mask="url(#mask0_2469_1994)">
<path d="M32.7656 23.4038H24.2283V25.9126H30.342C30.0254 29.4322 27.1421 30.9606 24.4019 30.9606C20.8823 30.9606 17.7676 28.2204 17.7676 24.241C17.7676 20.2617 20.7392 17.5215 24.4019 17.5215C27.2273 17.5215 28.9019 19.3392 28.9019 19.3392L30.6313 17.5215C30.6313 17.5215 28.3234 15.0127 24.3166 15.0127C19.0372 15.0127 15 19.4548 15 24.241C15 29.0272 18.8363 33.4694 24.4597 33.4694C29.4195 33.4694 32.997 30.1233 32.997 25.0783C32.9391 24.0127 32.7656 23.4068 32.7656 23.4068V23.4038Z" fill="#202B4B"/>
</g>
</svg>
