<svg width="48" height="48" viewBox="0 0 48 48" fill="none" xmlns="http://www.w3.org/2000/svg">
<circle cx="24" cy="24" r="24" fill="#F6F6F6"/>
<path d="M15.4697 22.5175C14.6573 22.5175 14 23.1798 14 24.0017C14 24.8236 14.6573 25.4825 15.4697 25.4825C16.2822 25.4825 16.9395 24.8202 16.9395 24.0017C16.9395 23.1832 16.2788 22.5175 15.4697 22.5175ZM15.4697 29.035C14.6573 29.035 14 29.6973 14 30.5158C14 31.3343 14.6573 32 15.4697 32C16.2822 32 16.9395 31.3377 16.9395 30.5158C16.9395 29.6939 16.2788 29.035 15.4697 29.035ZM15.4697 16C14.6573 16 14 16.6623 14 17.4808C14 18.2993 14.6573 18.9616 15.4697 18.9616C16.2822 18.9616 16.9395 18.2993 16.9395 17.4808C16.9395 16.6623 16.2788 16 15.4697 16ZM33.4101 16.5944H19.8824C19.5554 16.5944 19.2924 16.8593 19.2924 17.1887V17.7831C19.2924 18.1125 19.5554 18.3774 19.8824 18.3774H33.4101C33.7371 18.3774 34 18.1125 34 17.7831V17.1887C34 16.8593 33.7371 16.5944 33.4101 16.5944ZM33.4101 29.6328H19.8824C19.5554 29.6328 19.2924 29.8977 19.2924 30.2271V30.8215C19.2924 31.1509 19.5554 31.4158 19.8824 31.4158H33.4101C33.7371 31.4158 34 31.1509 34 30.8215V30.2271C34 29.9011 33.7371 29.6328 33.4101 29.6328ZM33.4101 23.1153H19.8824C19.5554 23.1153 19.2924 23.3802 19.2924 23.7096V24.304C19.2924 24.63 19.5554 24.8983 19.8824 24.8983H33.4101C33.7371 24.8983 34 24.6334 34 24.304V23.7096C34 23.3802 33.7371 23.1153 33.4101 23.1153Z" fill="#202B4B"/>
</svg>
