<svg width="48" height="48" viewBox="0 0 48 48" fill="none" xmlns="http://www.w3.org/2000/svg">
<circle cx="24" cy="24" r="24" fill="#191919"/>
<mask id="mask0_1826_1316" style="mask-type:luminance" maskUnits="userSpaceOnUse" x="15" y="15" width="18" height="19">
<path d="M33 15H15V33.4932H33V15Z" fill="white"/>
</mask>
<g mask="url(#mask0_1826_1316)">
<path d="M32.7656 23.4028H24.2283V25.9116H30.342C30.0254 29.4312 27.1421 30.9596 24.4019 30.9596C20.8823 30.9596 17.7676 28.2194 17.7676 24.2401C17.7676 20.2607 20.7392 17.5205 24.4019 17.5205C27.2273 17.5205 28.9019 19.3382 28.9019 19.3382L30.6313 17.5205C30.6313 17.5205 28.3234 15.0117 24.3166 15.0117C19.0372 15.0117 15 19.4539 15 24.2401C15 29.0263 18.8363 33.4684 24.4597 33.4684C29.4195 33.4684 32.997 30.1223 32.997 25.0773C32.9391 24.0117 32.7656 23.4058 32.7656 23.4058V23.4028Z" fill="#BBBBBB"/>
</g>
</svg>
