<svg width="48" height="48" viewBox="0 0 48 48" fill="none" xmlns="http://www.w3.org/2000/svg">
<circle cx="24" cy="24" r="24" fill="#191919"/>
<mask id="mask0_1826_1332" style="mask-type:luminance" maskUnits="userSpaceOnUse" x="14" y="13" width="20" height="22">
<path d="M34 13H14V34.8317H34V13Z" fill="white"/>
</mask>
<g mask="url(#mask0_1826_1332)">
<path d="M23.801 24.7966C20.5422 24.7966 17.8984 22.1555 17.8984 18.894C17.8984 15.6326 20.5395 12.9941 23.801 12.9941C27.0624 12.9941 29.7035 15.6352 29.7035 18.8967C29.7035 22.1581 27.0624 24.7993 23.801 24.7993V24.7966ZM23.801 14.3466C21.2903 14.3466 19.2536 16.3834 19.2536 18.894C19.2536 21.4047 21.2903 23.4414 23.801 23.4414C26.3116 23.4414 28.3484 21.4047 28.3484 18.894C28.3404 16.386 26.309 14.3546 23.801 14.3466Z" fill="#BBBBBB"/>
</g>
<path d="M24.1709 23.3828C26.7667 23.3828 29.2564 24.4129 31.0908 26.25C32.9252 28.0844 33.958 30.5741 33.958 33.1699L33.9844 34.7461L33.9873 34.749H26.7158C26.631 34.786 26.5372 34.8076 26.4385 34.8076V34.749H14V33.2285C14 30.6274 15.0353 28.1349 16.875 26.2979C18.7173 24.4608 21.2124 23.4335 23.8135 23.4414C23.8362 23.4414 23.8586 23.4451 23.8809 23.4473C23.9691 23.4066 24.067 23.3828 24.1709 23.3828ZM24.1035 24.7598C24.0151 24.8006 23.9176 24.8262 23.8135 24.8262C19.1597 24.8342 15.3898 28.604 15.3818 33.2578V33.4229H21.2666C21.352 33.3854 21.4464 33.3643 21.5459 33.3643H32.6025V33.1992C32.5946 28.5453 28.8248 24.7756 24.1709 24.7676C24.148 24.7676 24.1258 24.7619 24.1035 24.7598Z" fill="#BBBBBB"/>
</svg>
