<svg width="48" height="48" viewBox="0 0 48 48" fill="none" xmlns="http://www.w3.org/2000/svg">
<circle cx="24" cy="24" r="24" fill="#F6F6F6"/>
<mask id="mask0_2469_1956" style="mask-type:luminance" maskUnits="userSpaceOnUse" x="13" y="16" width="22" height="17">
<path d="M35 16H13V32.503H35V16Z" fill="white"/>
</mask>
<g mask="url(#mask0_2469_1956)">
<path d="M33.0553 16.0166H14.9194C13.889 16.0166 12.9961 16.9078 12.9961 17.9362V30.5518C12.9961 31.5802 13.889 32.4714 14.9194 32.4714H33.0553C34.0857 32.4714 34.9787 31.5799 34.9787 30.5518V17.9362C34.9787 16.9078 34.0857 16.0166 33.0553 16.0166ZM23.9874 25.6152L15.3317 17.3192H32.5743L23.9874 25.6152ZM33.0553 31.1688H14.9194C14.576 31.1688 14.3012 30.8943 14.3012 30.5518V18.1421L23.5751 26.9865C23.7127 27.1237 23.8502 27.192 24.0561 27.192C24.1937 27.192 24.2621 27.192 24.3312 27.1234C24.3999 27.1234 24.5371 27.0548 24.6059 26.9861L33.7423 18.1421V30.6201C33.6735 30.8943 33.3988 31.1688 33.0553 31.1688Z" fill="#202B4B"/>
</g>
</svg>
