<svg width="48" height="48" viewBox="0 0 48 48" fill="none" xmlns="http://www.w3.org/2000/svg">
<circle cx="24" cy="24" r="24" fill="#191919"/>
<mask id="mask0_1826_1296" style="mask-type:luminance" maskUnits="userSpaceOnUse" x="13" y="16" width="22" height="17">
<path d="M35 16H13V32.503H35V16Z" fill="white"/>
</mask>
<g mask="url(#mask0_1826_1296)">
<path d="M33.0553 16.0156H14.9194C13.889 16.0156 12.9961 16.9068 12.9961 17.9352V30.5508C12.9961 31.5793 13.889 32.4704 14.9194 32.4704H33.0553C34.0857 32.4704 34.9787 31.5789 34.9787 30.5508V17.9352C34.9787 16.9068 34.0857 16.0156 33.0553 16.0156ZM23.9874 25.6143L15.3317 17.3182H32.5743L23.9874 25.6143ZM33.0553 31.1678H14.9194C14.576 31.1678 14.3012 30.8933 14.3012 30.5508V18.1411L23.5751 26.9855C23.7127 27.1228 23.8502 27.191 24.0561 27.191C24.1937 27.191 24.2621 27.1911 24.3312 27.1224C24.3999 27.1224 24.5371 27.0538 24.6059 26.9852L33.7423 18.1411V30.6191C33.6735 30.8933 33.3988 31.1678 33.0553 31.1678Z" fill="#BBBBBB"/>
</g>
</svg>
