<svg xmlns="http://www.w3.org/2000/svg" width="20" height="20" viewBox="0 0 20 20" fill="none">
  <path d="M4.97035 15.7169L4.96975 15.6234C4.96975 15.6552 4.96999 15.6863 4.97035 15.7169ZM11.9975 5.05933C11.5656 5.05933 11.2154 5.40915 11.2154 5.8415L11.2226 15.6493C11.2226 16.0809 11.5728 16.4315 12.0048 16.4315C12.4368 16.4315 12.787 16.0809 12.787 15.6493L12.7801 5.8415C12.7801 5.40917 12.4299 5.05933 11.9975 5.05933ZM17.4476 2.73646L11.2193 2.73936L11.2158 1.93063C11.2158 1.49828 10.8655 1.14844 10.4332 1.14844C10.2907 1.14844 10.1573 1.18669 10.0422 1.25321C9.92711 1.18669 9.7936 1.14844 9.651 1.14844C9.21905 1.14844 8.86883 1.49828 8.86883 1.93063L8.8725 2.74046L4.37805 2.74254C4.31499 2.72615 4.24888 2.71739 4.18071 2.71739C4.11229 2.71739 4.04596 2.72623 3.98272 2.74272L2.55563 2.74338C2.12368 2.74338 1.77344 3.09398 1.77344 3.52555C1.77344 3.95789 2.12366 4.30774 2.55563 4.30774L3.39892 4.30734L3.40463 16.3758H3.40579V17.2068C3.40579 18.0708 4.10624 18.7712 4.97015 18.7712H5.75234V18.7771L14.3563 18.7721V18.7712H15.1385C15.9913 18.7712 16.6843 18.0886 16.7021 17.24L16.6956 5.84609C16.6956 5.41377 16.3454 5.06392 15.9134 5.06392C15.4815 5.06392 15.1313 5.41377 15.1313 5.84609L15.1369 15.7938C15.1094 16.9718 14.7737 17.1877 13.5745 17.1877L14.3865 17.2077L5.5107 17.2129L6.53411 17.1877C5.3092 17.1877 4.98518 16.9627 4.97035 15.7169L4.97998 17.2132H4.96937L4.96325 4.30658L9.5887 4.30444C9.61162 4.30646 9.63481 4.30769 9.65825 4.30769C9.682 4.30769 9.70544 4.30646 9.72864 4.30438L10.3661 4.30408C10.3906 4.3064 10.4154 4.30769 10.4405 4.30769C10.4658 4.30769 10.4909 4.30638 10.5157 4.30402L17.4476 4.30082C17.8795 4.30082 18.2298 3.95098 18.2298 3.51865C18.2298 3.0863 17.8796 2.73646 17.4476 2.73646ZM15.137 15.9237L15.1377 17.2072H15.1287L15.137 15.9237ZM8.08666 5.05933C7.65469 5.05933 7.30447 5.40915 7.30447 5.8415L7.31172 15.6493C7.31172 16.0809 7.66194 16.4315 8.09393 16.4315C8.52588 16.4315 8.8761 16.0809 8.8761 15.6493L8.86885 5.8415C8.86883 5.40917 8.5186 5.05933 8.08666 5.05933Z" fill="#ADB1B8"/>
</svg>