<svg xmlns="http://www.w3.org/2000/svg" width="20" height="20" viewBox="0 0 20 20" fill="none">
  <path d="M9.16667 2.5C9.38766 2.50003 9.59959 2.58785 9.75584 2.74412C9.91209 2.9004 9.99987 3.11234 9.99987 3.33333C9.99987 3.55433 9.91209 3.76627 9.75584 3.92254C9.59959 4.07882 9.38766 4.16663 9.16667 4.16667H4.16667V15.8333H15.8333V10.8333L15.8392 10.7358C15.8643 10.5249 15.9689 10.3315 16.1318 10.1952C16.2947 10.0589 16.5035 9.98991 16.7155 10.0024C16.9275 10.0148 17.1268 10.1077 17.2726 10.2622C17.4184 10.4166 17.4998 10.6209 17.5 10.8333V15.8333C17.5 16.2754 17.3244 16.6993 17.0118 17.0118C16.6993 17.3244 16.2754 17.5 15.8333 17.5H4.16667C3.72464 17.5 3.30072 17.3244 2.98816 17.0118C2.67559 16.6993 2.5 16.2754 2.5 15.8333V4.16667C2.5 3.72464 2.67559 3.30072 2.98816 2.98816C3.30072 2.67559 3.72464 2.5 4.16667 2.5H9.16667ZM17.2667 2.74417C17.4229 2.90044 17.5107 3.11236 17.5107 3.33333C17.5107 3.5543 17.4229 3.76623 17.2667 3.9225L9.60667 11.5833C9.4495 11.7351 9.239 11.8191 9.0205 11.8172C8.802 11.8153 8.59299 11.7277 8.43848 11.5732C8.28398 11.4187 8.19634 11.2097 8.19444 10.9912C8.19254 10.7727 8.27654 10.5622 8.42833 10.405L16.0883 2.745C16.2446 2.58877 16.4565 2.50101 16.6775 2.50101C16.8985 2.50101 17.1104 2.58877 17.2667 2.745V2.74417Z" fill="#ADB1B8"/>
</svg>