<svg width="18" height="19" viewBox="0 0 18 19" fill="none" xmlns="http://www.w3.org/2000/svg">
<mask id="mask0_1911_2810" style="mask-type:luminance" maskUnits="userSpaceOnUse" x="0" y="0" width="18" height="19">
<path d="M18 0H0V18.0281H18V0Z" fill="white"/>
</mask>
<g mask="url(#mask0_1911_2810)">
<path d="M15.9835 17.9996H1.99463C1.46448 17.9996 0.956281 17.7891 0.581574 17.4144C0.206867 17.0397 -0.00390625 16.5312 -0.00390625 16.0014V6.00899C-0.00390625 5.28943 0.375778 4.66004 0.94545 4.31022L8.98907 0.0136719L17.0327 4.31022C17.6024 4.66004 17.9721 5.28943 17.9721 6.00899L17.982 16.0011C17.982 16.5309 17.7716 17.0394 17.3969 17.4141C17.0221 17.7888 16.5137 17.9993 15.9838 17.9993L15.9835 17.9996ZM15.9736 6.00899L8.98907 2.33188L1.99463 6.00899L8.98907 10.0058L15.9736 6.00899ZM1.99463 16.0011H15.9838L15.9738 8.37696L8.98936 12.3638L1.99463 8.3471V16.0011Z" fill="#ADB1B8"/>
</g>
</svg>
