<svg width="99" height="29" viewBox="0 0 99 29" fill="none" xmlns="http://www.w3.org/2000/svg">
<path fill-rule="evenodd" clip-rule="evenodd" d="M20.9978 7.22047V0.113037H17.3471L15.8288 7.22047H20.9978ZM11.9881 0.113037L10.8839 5.28206L9.51129 11.7075H14.8516L13.7474 16.8765H8.40709L7.03445 23.302L5.93023 28.471H0.644531L3.12137 16.8765H0.680605L1.7848 11.7075H4.22556L6.7024 0.113037H11.9881ZM11.9793 25.2404L12.3934 23.302H15.8288L16.2429 21.3636H20.9978V28.471H11.2892L11.9793 25.2404Z" fill="#1E1E1E"/>
<path d="M97.5487 7.31497V9.49482C96.4229 8.91992 94.6263 8.20128 92.4225 8.20128C88.494 8.20128 85.6673 11.0758 85.6673 14.9804C85.6673 18.885 88.494 21.7595 92.4225 21.7595C94.7461 21.7595 96.5426 21.0648 97.6685 20.4899V22.6698C97.0936 23.0051 95.1533 23.8914 92.4225 23.8914C87.2004 23.8914 83.3438 20.1066 83.3438 14.9804C83.3438 9.85414 87.2004 6.06934 92.4225 6.06934C95.0335 6.06934 96.9738 6.97961 97.5487 7.31497Z" fill="#1E1E1E"/>
<path d="M85.6657 14.9808C85.6657 11.0762 88.4924 8.20172 92.4209 8.20172L92.6261 8.20389C94.7362 8.24655 96.4566 8.93834 97.5473 9.49529V7.3153C96.9903 6.99042 95.1518 6.12592 92.6636 6.07222L92.4209 6.0697C87.1989 6.0697 83.3422 9.85454 83.3422 14.9808L83.345 15.2199C83.4611 20.1448 87.1601 23.775 92.1772 23.889L92.4209 23.8919C95.1517 23.8919 97.0921 23.0054 97.667 22.6701V20.4904C96.5411 21.0653 94.7445 21.7598 92.4209 21.7599V20.6794C94.5244 20.6794 96.1508 20.0512 97.1755 19.5279L98.7474 18.7255V23.2907L98.2112 23.6034C97.4995 24.0185 95.3734 24.9723 92.4209 24.9723C86.6213 24.9723 82.2617 20.7227 82.2617 14.9808C82.2617 9.2389 86.6213 4.98926 92.4209 4.98926C95.2681 4.98927 97.395 5.97576 98.0914 6.382L98.6277 6.69466V11.2598L97.0557 10.4574C96.0143 9.92564 94.3913 9.28217 92.4209 9.28216C89.0967 9.28216 86.7461 11.6653 86.7461 14.9808C86.7461 18.2963 89.0967 20.6794 92.4209 20.6794V21.7599L92.2374 21.7577C88.4654 21.671 85.753 18.9138 85.6678 15.1629L85.6657 14.9808Z" fill="#1E1E1E"/>
<path d="M74.0517 16.8969H71.0574V23.6041H68.7578V6.35693H74.0517C77.7168 6.35693 79.9206 8.3212 79.9206 11.6269C79.9206 14.9326 77.7168 16.8969 74.0517 16.8969ZM73.9799 8.29724H71.0574V14.9566H74.1715C76.3035 14.9566 77.5731 13.7109 77.5731 11.6269C77.5731 9.54288 76.2316 8.29724 73.9799 8.29724Z" fill="#1E1E1E"/>
<path d="M79.9191 11.6269C79.919 8.37289 77.7834 6.41874 74.2208 6.35849L74.0502 6.35705V5.27661C76.0672 5.27662 77.8193 5.81816 79.0799 6.94776C80.3559 8.09128 80.9995 9.72251 80.9995 11.6269C80.9995 13.5313 80.356 15.1628 79.0799 16.3064C77.8193 17.436 76.0672 17.9775 74.0502 17.9775H72.1364V24.6845H67.6758V5.27661H74.0502V6.35705H68.7562V23.6044H71.0559V16.8971H74.0502L74.2208 16.8957C77.727 16.8364 79.8508 14.9426 79.9173 11.7809L79.9191 11.6269ZM76.4909 11.6269C76.4909 10.8244 76.2398 10.3023 75.8847 9.97306C75.5191 9.63402 74.911 9.37769 73.9785 9.37766H72.1364V13.8761H74.17V14.9566H71.0559V8.29722H73.9785C76.23 8.29729 77.5713 9.54299 77.5714 11.6269L77.5678 11.8198C77.4913 13.7877 76.2353 14.9566 74.17 14.9566V13.8761C75.0271 13.8761 75.5796 13.6295 75.9143 13.3016C76.2462 12.9766 76.4909 12.4474 76.4909 11.6269Z" fill="#1E1E1E"/>
<path d="M60.803 14.5494C62.5038 15.1722 63.6536 16.849 63.6536 18.7414C63.6536 21.6638 61.354 23.6041 57.9285 23.6041H52.0117V6.35693H57.3057C60.7072 6.35693 62.9589 8.12956 62.9589 11.076C62.9589 12.5611 62.1445 13.9265 60.803 14.5494ZM54.2395 13.8307H58.8148C59.8927 13.5433 60.6114 12.5851 60.6114 11.1957C60.6114 9.4231 59.4376 8.22538 57.4733 8.22538H54.2395V13.8307ZM54.2395 15.6273V21.7357H58.0003C59.9886 21.7357 61.306 20.4901 61.306 18.6456C61.306 16.8011 60.1562 15.6273 58.4555 15.6273H54.2395Z" fill="#1E1E1E"/>
<path d="M63.6519 18.7413C63.6518 16.849 62.5022 15.1722 60.8015 14.5494C62.1009 13.9461 62.9057 12.6459 62.9548 11.2151L62.9573 11.0762C62.9573 8.22193 60.8442 6.4689 57.6197 6.3621L57.3041 6.35705V5.27661C59.1815 5.27662 60.8604 5.76561 62.0918 6.77682C63.3474 7.8079 64.0378 9.30305 64.0378 11.0762C64.0377 12.3322 63.574 13.5382 62.7427 14.4423C63.9807 15.4748 64.7323 17.0467 64.7323 18.7413C64.7323 20.5077 64.0272 22.0295 62.7727 23.093C61.5342 24.1429 59.8373 24.6845 57.9269 24.6845H50.9297V5.27661H57.3041V6.35705H52.0101V23.6044H57.9269L58.0867 23.603C61.3708 23.5444 63.5812 21.6789 63.6504 18.8777L63.6519 18.7413ZM60.2241 18.6458C60.2241 17.9494 60.0107 17.479 59.7355 17.1906C59.4642 16.9064 59.047 16.7078 58.4538 16.7078H55.3182V20.6556H57.9987V21.7356H54.2377V15.6273H58.4538C60.1546 15.6273 61.3046 16.8013 61.3046 18.6458L61.3006 18.8167C61.2215 20.5668 59.9248 21.7356 57.9987 21.7356V20.6556C58.7665 20.6556 59.313 20.4179 59.6579 20.0944C59.997 19.7765 60.2241 19.2996 60.2241 18.6458ZM59.5292 11.1959C59.5292 10.554 59.3223 10.1087 59.0265 9.82268C58.728 9.5341 58.233 9.30591 57.4718 9.3059H55.3182V12.7506H58.6485C59.129 12.5749 59.5292 12.1075 59.5292 11.1959ZM60.6078 11.3247C60.5647 12.6443 59.8576 13.5521 58.8134 13.8307H54.2377V8.22546H57.4718C59.436 8.22549 60.6096 9.42334 60.6096 11.1959L60.6078 11.3247Z" fill="#1E1E1E"/>
<path d="M46.8882 22.5739C45.4749 23.3405 43.2951 23.8914 41.235 23.8914C36.0129 23.8914 32.1562 20.1066 32.1562 14.9804C32.1562 9.85414 36.0608 6.06934 41.3548 6.06934C43.9658 6.06934 45.9061 6.97961 46.481 7.29101V9.49482C45.3552 8.91992 43.5586 8.20128 41.3068 8.20128C37.2106 8.20128 34.4798 11.0758 34.4798 14.9804C34.4798 18.9089 37.3065 21.7835 41.235 21.7835C42.4567 21.7835 43.87 21.52 44.6365 21.1606V15.9625H46.8882V22.5739Z" fill="#1E1E1E"/>
<path d="M34.4821 14.9808C34.4821 11.0762 37.2129 8.20175 41.3091 8.20172L41.519 8.20389C43.6726 8.2466 45.3927 8.93836 46.4834 9.49529V7.2915C45.9264 6.98982 44.088 6.12589 41.5998 6.07222L41.3571 6.0697C36.0631 6.0697 32.1586 9.85454 32.1586 14.9808L32.1614 15.2199C32.2775 20.1449 35.9765 23.775 40.9936 23.889L41.2373 23.8919C43.2974 23.8919 45.4772 23.3407 46.8905 22.5742V15.9628H44.6388V21.1609C43.8723 21.5202 42.459 21.7836 41.2373 21.7837V20.7036C42.0467 20.7036 42.9184 20.5728 43.5583 20.3988V14.8823H47.971V23.2175L47.4055 23.524C45.8159 24.3862 43.4554 24.9723 41.2373 24.9723C35.4377 24.9723 31.0781 20.7227 31.0781 14.9808C31.0781 9.22595 35.4989 4.98926 41.3571 4.98926C44.2085 4.98926 46.3288 5.97875 46.998 6.34125L47.5638 6.64778V11.2598L45.9919 10.4574C44.9533 9.92712 43.3296 9.28216 41.3091 9.28216C39.5223 9.28217 38.1007 9.90381 37.1273 10.887C36.1516 11.8724 35.5625 13.2853 35.5625 14.9808C35.5625 18.3228 37.9156 20.7036 41.2373 20.7036V21.7837L41.0538 21.7819C37.2818 21.6952 34.5693 18.9374 34.4842 15.164L34.4821 14.9808Z" fill="#1E1E1E"/>
</svg>
