<svg xmlns="http://www.w3.org/2000/svg" width="18" height="18" viewBox="0 0 18 18" fill="none">
  <path d="M13.9508 10.773C13.4127 12.6388 11.8287 14.0179 9.90168 14.2983C8.41095 14.5138 6.89623 14.1144 5.7076 13.1917C4.51897 12.2693 3.75898 10.9034 3.60318 9.40967C3.48245 7.9094 3.99728 6.42701 5.02326 5.32251C6.04898 4.21801 7.492 3.59231 9.00197 3.59704C9.70186 3.59809 10.3949 3.73185 11.0444 3.99175C11.2564 4.08661 11.506 4.00488 11.6204 3.80333L12.9161 1.4264C12.9725 1.31576 12.9823 1.18752 12.9435 1.06953C12.9048 0.951539 12.8204 0.854044 12.7092 0.798333C9.88059 -0.478034 6.5915 -0.210777 4.00783 1.50576C1.42416 3.2223 -0.0892407 6.1453 0.00407823 9.23912C0.187816 13.9233 3.91925 17.6978 8.61499 17.9487C13.5559 18.1671 17.7476 14.3693 17.9999 9.44541V7.65135C17.9951 7.40564 17.7964 7.20776 17.5499 7.20276H9.45196C9.20337 7.20276 9.00197 7.40354 9.00197 7.65135V10.3423C9.00197 10.4611 9.04942 10.5754 9.13378 10.6595C9.21813 10.7436 9.33254 10.7909 9.45196 10.7909H13.951" fill="#202B4B"/>
</svg>