<svg xmlns="http://www.w3.org/2000/svg" width="32" height="32" viewBox="0 0 32 32" fill="none">
  <path d="M21.16 17.9497H6C4.896 17.9497 4 17.0497 4 15.9397C4 14.8297 4.896 13.9297 6 13.9297L21.16 13.9297L14.58 7.31771C14.2519 6.93248 14.0805 6.43806 14.0998 5.93243C14.119 5.4268 14.3276 4.94685 14.684 4.58771C15.0393 4.23025 15.5169 4.02076 16.0205 4.00146C16.5242 3.98216 17.0164 4.15449 17.398 4.48371L27.198 14.3317C27.4393 14.5122 27.6369 14.7447 27.7761 15.012C27.9154 15.2793 27.9926 15.5744 28.0022 15.8757C28.0119 16.1769 27.9535 16.4764 27.8316 16.752C27.7097 17.0276 27.5273 17.2722 27.298 17.4677L17.398 27.4157C17.212 27.6017 16.991 27.7491 16.7478 27.8493C16.5046 27.9496 16.244 28.0007 15.9809 27.9998C15.7179 27.9989 15.4576 27.9459 15.2151 27.8439C14.9726 27.742 14.7527 27.593 14.568 27.4057C14.1944 27.0261 13.9858 26.5143 13.9877 25.9816C13.9896 25.449 14.2017 24.9387 14.578 24.5617L21.158 17.9497H21.16Z" fill="#6E7587"/>
</svg>