<svg xmlns="http://www.w3.org/2000/svg" width="24" height="24" viewBox="0 0 24 24" fill="none">
  <path d="M12.0016 12.4563C13.8742 12.4563 15.3977 10.9328 15.3977 9.06016C15.3977 7.1875 13.8742 5.66406 12.0016 5.66406C10.1289 5.66406 8.60547 7.1875 8.60547 9.06016C8.60547 10.9328 10.1289 12.4563 12.0016 12.4563ZM12.0016 6.85234C13.2203 6.85234 14.2117 7.84375 14.2117 9.0625C14.2117 10.2812 13.2203 11.2703 12.0016 11.2703C10.7828 11.2703 9.79141 10.2789 9.79141 9.06016C9.79141 7.84141 10.7828 6.85234 12.0016 6.85234Z" fill="#231815"/>
  <path d="M21 12C21 7.03828 16.9617 3 12 3C7.03828 3 3 7.03828 3 12C3 13.9523 3.63984 15.8555 4.80703 17.4094L4.80234 17.4188L5.06953 17.7398L5.60859 18.3891L5.62969 18.3539C7.31016 20.0437 9.59062 21 12 21C14.4094 21 16.6898 20.0437 18.3727 18.3539L18.3937 18.3891L18.9328 17.7398L19.2 17.4188L19.1953 17.4094C20.3602 15.8555 21 13.9523 21 12ZM12 4.18594C16.3078 4.18594 19.8141 7.69219 19.8141 12C19.8141 13.5469 19.3523 15.0586 18.5016 16.3336C18.4781 16.3008 18.4523 16.2703 18.4289 16.2398C18.4102 16.2164 18.3914 16.1906 18.3727 16.1672C18.3352 16.1203 18.2953 16.0711 18.2578 16.0242C18.2437 16.0055 18.2297 15.9891 18.2133 15.9703C18.1594 15.907 18.1031 15.8438 18.0492 15.7805C18.0398 15.7687 18.0281 15.7594 18.0187 15.7477C17.9719 15.6961 17.925 15.6469 17.8781 15.5977C17.857 15.5766 17.8359 15.5555 17.8172 15.5344C17.7797 15.4969 17.7422 15.457 17.7023 15.4195C17.6789 15.3961 17.6555 15.3727 17.6297 15.3492C17.5945 15.3141 17.557 15.2789 17.5195 15.2461L17.4422 15.1758C17.4047 15.143 17.3695 15.1102 17.332 15.0773C17.3062 15.0539 17.2781 15.0305 17.2523 15.0094C17.2148 14.9789 17.1773 14.9461 17.1398 14.9156C17.1141 14.8945 17.0859 14.8711 17.0602 14.85C17.0203 14.8195 16.9828 14.7891 16.943 14.7586C16.9172 14.7375 16.8914 14.7187 16.8633 14.6977C16.8211 14.6648 16.7789 14.6344 16.7344 14.6039C16.7109 14.5852 16.6852 14.5687 16.6617 14.55C16.6102 14.5148 16.5586 14.4773 16.5047 14.4445C16.4883 14.4328 16.4719 14.4211 16.4555 14.4117C16.3852 14.3672 16.3172 14.3227 16.2469 14.2781C16.2281 14.2664 16.2117 14.257 16.193 14.2453C16.1391 14.2125 16.0875 14.182 16.0336 14.1516C16.0078 14.1375 15.9797 14.1211 15.9539 14.107C15.907 14.0813 15.8625 14.0555 15.8156 14.032C15.7852 14.0156 15.757 14.0016 15.7266 13.9852C15.682 13.9617 15.6375 13.9406 15.593 13.9172C15.5625 13.9008 15.532 13.8867 15.4992 13.8727L15.3656 13.8094C15.3352 13.7953 15.3023 13.7813 15.2695 13.7672C15.225 13.7484 15.1805 13.7273 15.1336 13.7086C15.1031 13.6945 15.0703 13.6828 15.0398 13.6688L14.8992 13.6125L14.8078 13.5773L14.6531 13.5211C14.6273 13.5117 14.5992 13.5023 14.5734 13.493C14.5055 13.4695 14.4398 13.4484 14.3719 13.4273C14.3602 13.4227 14.3484 13.4203 14.3367 13.4156C14.257 13.3922 14.1773 13.3687 14.0977 13.3477C14.0742 13.3406 14.0508 13.3359 14.0273 13.3289C13.9711 13.3148 13.9125 13.2984 13.8563 13.2867L13.7648 13.2656C13.7133 13.2539 13.6641 13.2422 13.6125 13.2328C13.5797 13.2258 13.5445 13.2188 13.5117 13.2141L13.3641 13.1859C13.3289 13.1789 13.2937 13.1742 13.2609 13.1695C13.2117 13.1625 13.1648 13.1555 13.1156 13.1484L13.0102 13.1344C12.9609 13.1273 12.9117 13.1227 12.8625 13.118C12.8273 13.1133 12.7945 13.1109 12.7594 13.1063C12.7078 13.1016 12.6562 13.0969 12.6047 13.0945L12.5062 13.0875C12.45 13.0828 12.3938 13.0805 12.3375 13.0781C12.3094 13.0758 12.2812 13.0758 12.2531 13.0734C12.1687 13.0711 12.0844 13.0687 12 13.0687C11.9156 13.0687 11.8313 13.0711 11.7469 13.0734C11.7188 13.0734 11.6906 13.0758 11.6625 13.0781C11.6062 13.0805 11.55 13.0828 11.4937 13.0875L11.3953 13.0945C11.3438 13.0992 11.2922 13.1016 11.2406 13.1063C11.2055 13.1086 11.1727 13.1133 11.1375 13.118C11.0883 13.1227 11.0391 13.1297 10.9898 13.1344L10.8844 13.1484C10.8352 13.1555 10.7859 13.1625 10.7391 13.1695C10.7039 13.1742 10.6687 13.1812 10.6359 13.1859L10.4883 13.2141C10.4555 13.2211 10.4227 13.2258 10.3875 13.2328C10.3359 13.2422 10.2844 13.2539 10.2352 13.2656L10.1437 13.2867C10.0852 13.3008 10.0289 13.3148 9.97266 13.3289C9.94922 13.3359 9.92578 13.3406 9.90234 13.3477C9.82266 13.3687 9.74297 13.3922 9.66328 13.4156C9.65156 13.418 9.63984 13.4227 9.63047 13.4273C9.5625 13.4484 9.49453 13.4695 9.42656 13.493C9.40078 13.5023 9.37266 13.5117 9.34687 13.5211C9.29531 13.5398 9.24375 13.5562 9.19219 13.5773L9.10078 13.6125L8.96016 13.6688C8.92969 13.6805 8.89687 13.6945 8.86641 13.7086C8.82187 13.7273 8.775 13.7461 8.73047 13.7672C8.7 13.7813 8.66719 13.7953 8.63672 13.8094L8.50312 13.8727C8.47266 13.8867 8.44219 13.9031 8.41172 13.9172C8.36719 13.9383 8.32266 13.9617 8.27813 13.9852C8.25 13.9992 8.21953 14.0156 8.19141 14.032C8.14453 14.0578 8.09766 14.0836 8.05313 14.1094C8.02734 14.1234 8.00156 14.1375 7.97578 14.1539C7.92187 14.1844 7.86797 14.2172 7.81406 14.25C7.79766 14.2594 7.77891 14.2711 7.7625 14.2805L7.55156 14.4141C7.53516 14.4234 7.52109 14.4352 7.50469 14.4469C7.45078 14.482 7.39922 14.5172 7.34531 14.5547C7.32187 14.5711 7.29609 14.5898 7.27266 14.6063C7.23047 14.6367 7.18594 14.6695 7.14375 14.7C7.11797 14.7188 7.09219 14.7398 7.06406 14.7609C7.02422 14.7914 6.98437 14.8219 6.94453 14.8547C6.91875 14.8758 6.89062 14.8969 6.86484 14.9203C6.82734 14.9508 6.78984 14.9836 6.75 15.0141C6.72422 15.0375 6.69844 15.0586 6.67266 15.082C6.63516 15.1148 6.59766 15.1477 6.5625 15.1805C6.53672 15.2039 6.51094 15.2273 6.4875 15.2484C6.45 15.2836 6.4125 15.3187 6.37734 15.3539C6.35391 15.3773 6.33047 15.3984 6.30703 15.4219C6.26719 15.4594 6.22969 15.4992 6.19219 15.5391L6.13125 15.6C6.08203 15.6516 6.03516 15.7008 5.98828 15.7547C5.97891 15.7641 5.96953 15.7758 5.96016 15.7852C5.90391 15.8484 5.85 15.9117 5.79375 15.975C5.77969 15.9914 5.76562 16.0102 5.75156 16.0266C5.71172 16.0734 5.67187 16.1227 5.63437 16.1719C5.61562 16.1953 5.59687 16.2187 5.57812 16.2445C5.55234 16.2773 5.52891 16.3078 5.50313 16.3406C4.65234 15.0633 4.19063 13.5516 4.19063 12.007C4.18594 7.69219 7.69219 4.18594 12 4.18594ZM11.5781 19.8023C11.5312 19.8 11.4867 19.7953 11.4398 19.7906C11.3461 19.7836 11.2523 19.7766 11.1586 19.7672C11.1047 19.7602 11.0484 19.7531 10.9945 19.7461C10.9102 19.7344 10.8281 19.725 10.7437 19.7109C10.6852 19.7016 10.6289 19.6898 10.5703 19.6781C10.4906 19.6641 10.4133 19.65 10.3336 19.6312C10.275 19.6195 10.2164 19.6031 10.1578 19.5891C10.0828 19.5703 10.0055 19.5516 9.93047 19.5305C9.87188 19.5141 9.81328 19.4977 9.75469 19.4789C9.67969 19.4578 9.60703 19.4344 9.53203 19.4086C9.47344 19.3898 9.41719 19.3687 9.35859 19.3477C9.28594 19.3219 9.21328 19.2961 9.14297 19.268C9.08672 19.2445 9.02812 19.2211 8.97187 19.1977L8.76094 19.1063C8.70469 19.0805 8.65078 19.0547 8.59453 19.0289C8.52422 18.9961 8.45625 18.9609 8.38828 18.9258C8.33437 18.8977 8.28047 18.8695 8.22656 18.8391C8.15859 18.8016 8.09062 18.7617 8.025 18.7219C7.97344 18.6914 7.92187 18.6609 7.87031 18.6281C7.80234 18.5859 7.73672 18.5414 7.67109 18.4992C7.62187 18.4664 7.57266 18.4336 7.52578 18.4008C7.45781 18.3539 7.39453 18.3047 7.32891 18.2555C7.28438 18.2227 7.2375 18.1875 7.19297 18.1523C7.125 18.0984 7.05937 18.0445 6.99375 17.9883C6.95391 17.9531 6.91172 17.9203 6.87188 17.8852C6.80156 17.8242 6.73125 17.7586 6.66328 17.6953C6.63047 17.6648 6.59531 17.6344 6.5625 17.6016C6.47578 17.5172 6.38906 17.4281 6.30469 17.3391C6.29297 17.325 6.27891 17.3133 6.26719 17.3016L6.2625 17.2969C6.26484 17.2922 6.26719 17.2875 6.27188 17.2828C6.28828 17.257 6.30703 17.2336 6.32344 17.2102C6.34922 17.175 6.37266 17.1375 6.39844 17.1023C6.41719 17.0766 6.43594 17.0531 6.45469 17.0273C6.48047 16.9945 6.50625 16.9594 6.53203 16.9266C6.55078 16.9008 6.57188 16.8773 6.59063 16.8516C6.61641 16.8188 6.64219 16.7859 6.66797 16.7555C6.68906 16.7297 6.71016 16.7062 6.73125 16.6828C6.75703 16.6523 6.78516 16.6219 6.81094 16.5914C6.83203 16.568 6.85312 16.5422 6.87656 16.5187C6.90469 16.4883 6.93047 16.4578 6.95859 16.4297C6.97969 16.4062 7.00312 16.3828 7.02656 16.3594C7.05469 16.3313 7.08281 16.3008 7.11328 16.2727C7.13672 16.2492 7.16016 16.2281 7.18125 16.2047C7.21172 16.1766 7.23984 16.1484 7.27031 16.1203C7.29375 16.0992 7.31719 16.0781 7.34063 16.0547C7.37109 16.0266 7.40156 16.0008 7.43203 15.9727C7.45547 15.9516 7.47891 15.9305 7.50234 15.9117C7.53281 15.8859 7.56563 15.8578 7.59844 15.832C7.62188 15.8133 7.64531 15.7922 7.67109 15.7734C7.70391 15.7477 7.73672 15.7219 7.77188 15.6961C7.79531 15.6773 7.81875 15.6586 7.84453 15.6422L7.95 15.5648L8.02031 15.5156C8.05781 15.4898 8.09766 15.4617 8.13516 15.4359L8.19844 15.3937C8.24297 15.3633 8.28984 15.3352 8.33672 15.307C8.35078 15.2977 8.36719 15.2883 8.38125 15.2789C8.50547 15.2039 8.62969 15.1313 8.75859 15.0633C8.77734 15.0539 8.79609 15.0445 8.81484 15.0328C8.85938 15.0094 8.90391 14.9859 8.95078 14.9625C8.97422 14.9508 8.99766 14.9391 9.02344 14.9273C9.06563 14.9086 9.10547 14.8875 9.14766 14.8688C9.17344 14.857 9.20156 14.8453 9.22734 14.8336C9.26719 14.8172 9.30703 14.7984 9.34453 14.782L9.42891 14.7469C9.46875 14.7305 9.50625 14.7164 9.54609 14.7C9.57422 14.6883 9.60469 14.6789 9.63516 14.6672C9.67266 14.6531 9.7125 14.6391 9.75234 14.625C9.78281 14.6156 9.81328 14.6039 9.84141 14.5945C9.87891 14.5828 9.91875 14.5687 9.95859 14.557L10.05 14.5289C10.0875 14.5172 10.1273 14.5055 10.1672 14.4961C10.1977 14.4867 10.2305 14.4797 10.2609 14.4703C10.3008 14.4609 10.3383 14.4492 10.3781 14.4398C10.4086 14.4328 10.4414 14.4234 10.4719 14.4164C10.5117 14.407 10.5516 14.4 10.5891 14.3906C10.6219 14.3836 10.6523 14.3766 10.6852 14.3719L10.8047 14.3508C10.8375 14.3461 10.868 14.3391 10.9008 14.3344C10.9406 14.3273 10.9828 14.3227 11.0227 14.3156C11.0531 14.3109 11.0859 14.3063 11.1164 14.3016L11.243 14.2875C11.2734 14.2852 11.3039 14.2805 11.3344 14.2781C11.3789 14.2734 11.4234 14.2711 11.468 14.2664C11.4961 14.2641 11.5266 14.2617 11.5547 14.2594L11.7023 14.2523C11.7281 14.2523 11.7516 14.25 11.775 14.25C11.8477 14.2477 11.9227 14.2453 11.9953 14.2453C12.0703 14.2453 12.143 14.2477 12.2156 14.25C12.2414 14.25 12.2648 14.2523 12.2906 14.2523L12.4383 14.2594C12.4664 14.2617 12.4969 14.2641 12.525 14.2664C12.5695 14.2688 12.6141 14.2734 12.6586 14.2781C12.6891 14.2805 12.7195 14.2852 12.75 14.2875L12.8766 14.3016C12.907 14.3063 12.9398 14.3109 12.9703 14.3156C13.0102 14.3227 13.0523 14.3273 13.0922 14.3344C13.125 14.3391 13.1555 14.3461 13.1883 14.3508L13.3078 14.3719C13.3406 14.3789 13.3711 14.3859 13.4039 14.3906C13.4438 14.4 13.4836 14.407 13.5211 14.4164C13.5539 14.4234 13.5844 14.4305 13.6172 14.4398C13.657 14.4492 13.6945 14.4586 13.7344 14.4703C13.7648 14.4797 13.7977 14.4867 13.8281 14.4961C13.868 14.5078 13.9055 14.5172 13.9453 14.5289L14.0367 14.557C14.0766 14.5687 14.1141 14.5828 14.1539 14.5945C14.1844 14.6039 14.2148 14.6156 14.2453 14.625C14.2852 14.6391 14.3227 14.6531 14.3602 14.6672C14.3906 14.6789 14.4187 14.6883 14.4492 14.7C14.4891 14.7141 14.5266 14.7305 14.5664 14.7469L14.6508 14.782C14.6906 14.7984 14.7305 14.8148 14.768 14.8336C14.7937 14.8453 14.8219 14.857 14.8477 14.8688C14.8898 14.8875 14.9297 14.9063 14.9719 14.9273C14.9953 14.9391 15.0211 14.9508 15.0445 14.9625C15.0891 14.9859 15.1359 15.0094 15.1805 15.0328C15.1992 15.0422 15.218 15.0516 15.2367 15.0633C15.3656 15.1313 15.4898 15.2039 15.6141 15.2789C15.6281 15.2883 15.6445 15.2977 15.6586 15.307C15.7055 15.3352 15.75 15.3656 15.7969 15.3937L15.8602 15.4359C15.9 15.4617 15.9375 15.4875 15.9773 15.5156C16.0008 15.532 16.0242 15.5484 16.0453 15.5648L16.1508 15.6422C16.1742 15.6609 16.1977 15.6773 16.2211 15.6961C16.2539 15.7219 16.2891 15.7477 16.3219 15.7734C16.3453 15.7922 16.3687 15.8133 16.3945 15.832C16.4273 15.8578 16.4578 15.8859 16.4906 15.9117C16.5141 15.9328 16.5375 15.9516 16.5609 15.9727C16.5914 16.0008 16.6219 16.0266 16.6547 16.0547L16.725 16.118C16.7555 16.1461 16.7859 16.1742 16.8141 16.2023C16.8375 16.2234 16.8586 16.2469 16.882 16.2703L16.9688 16.357C16.9898 16.3805 17.0133 16.4039 17.0344 16.425L17.1188 16.5164L17.182 16.5867C17.2102 16.6172 17.2359 16.65 17.2641 16.6805C17.2852 16.7039 17.3063 16.7297 17.325 16.7531C17.3508 16.7859 17.3789 16.8188 17.4047 16.8516C17.4234 16.875 17.4445 16.9008 17.4633 16.9242C17.4891 16.957 17.5148 16.9922 17.5406 17.0273C17.5594 17.0508 17.5781 17.0766 17.5945 17.1C17.6203 17.1352 17.6461 17.1727 17.6719 17.2102L17.7211 17.2805C17.7234 17.2852 17.7281 17.2898 17.7305 17.2945L17.7258 17.2992C17.7141 17.3133 17.7 17.325 17.6883 17.3391C17.6039 17.4281 17.5195 17.5172 17.4328 17.6016C17.4 17.6344 17.3625 17.6648 17.3297 17.6977C17.2617 17.7609 17.1938 17.8242 17.1258 17.8852C17.0836 17.9227 17.0414 17.9555 16.9992 17.9906C16.9359 18.0445 16.8703 18.0984 16.8047 18.15L16.6641 18.2555C16.6008 18.3023 16.5375 18.3516 16.4719 18.3961C16.4227 18.4313 16.3711 18.4641 16.3195 18.4992C16.2562 18.5414 16.1906 18.5836 16.125 18.6258C16.0711 18.6586 16.0195 18.6914 15.9656 18.7219C15.9 18.7594 15.8344 18.7992 15.7687 18.8344C15.7148 18.8648 15.6586 18.893 15.6023 18.9234C15.5367 18.9586 15.4687 18.9914 15.4008 19.0242C15.3445 19.0523 15.2859 19.0781 15.2297 19.1039C15.1617 19.1344 15.0938 19.1648 15.0234 19.193C14.9648 19.2164 14.9062 19.2422 14.8477 19.2633C14.7773 19.2914 14.707 19.3172 14.6367 19.343C14.5781 19.3641 14.5195 19.3852 14.4586 19.4039C14.3859 19.4273 14.3133 19.4508 14.243 19.4719C14.182 19.4906 14.1234 19.507 14.0625 19.5234C13.9875 19.5445 13.9125 19.5609 13.8398 19.5797C13.7812 19.5938 13.7203 19.6102 13.6617 19.6219C13.5844 19.6383 13.507 19.6523 13.4273 19.6664C13.3688 19.6781 13.3102 19.6898 13.2516 19.6992C13.1695 19.7133 13.0875 19.7227 13.0031 19.7344C12.9469 19.7414 12.893 19.7508 12.8367 19.7555C12.743 19.7648 12.6516 19.7719 12.5578 19.7789C12.5109 19.7812 12.4641 19.7883 12.4172 19.7906C12.2766 19.7977 12.1359 19.8023 11.9953 19.8023C11.8594 19.8141 11.7164 19.8094 11.5781 19.8023Z" fill="#231815"/>
</svg>