<svg xmlns="http://www.w3.org/2000/svg" width="24" height="24" viewBox="0 0 24 24" fill="none">
  <path d="M11.0394 9.83301C10.8699 9.83297 10.7042 9.78305 10.5629 9.68947C10.4216 9.59589 10.311 9.46279 10.2449 9.30676C10.1787 9.15074 10.1599 8.97869 10.1909 8.81207C10.2219 8.64546 10.3012 8.49164 10.419 8.36981L12.3594 6.36027L10.3499 4.41824C10.1883 4.25841 10.0963 4.04133 10.0938 3.81409C10.0913 3.58685 10.1785 3.36779 10.3365 3.20445C10.4945 3.04112 10.7106 2.94667 10.9378 2.94162C11.165 2.93657 11.385 3.02131 11.5501 3.17746L13.9904 5.5341C14.0974 5.63743 14.1828 5.76089 14.2419 5.89739C14.3009 6.03389 14.3324 6.18073 14.3344 6.32944C14.3365 6.47815 14.3091 6.62579 14.2538 6.76387C14.1986 6.90194 14.1165 7.02772 14.0124 7.13395L11.6607 9.56981C11.5803 9.65341 11.4838 9.71985 11.377 9.76509C11.2702 9.81033 11.1554 9.83343 11.0394 9.83301ZM12.7885 6.77231C12.7918 6.77395 12.7937 6.77746 12.7953 6.7791L12.7885 6.77231Z" fill="#5CBAFF"/>
  <path d="M12.0018 21.062C7.64734 21.062 4.10547 17.5201 4.10547 13.1656C4.10547 8.81117 7.64828 5.26953 12.0018 5.26953C12.2282 5.27326 12.4441 5.36584 12.603 5.52729C12.7618 5.68874 12.8508 5.90614 12.8508 6.13262C12.8508 6.35909 12.7618 6.57649 12.603 6.73794C12.4441 6.8994 12.2282 6.99197 12.0018 6.9957C8.59984 6.9957 5.83188 9.76367 5.83188 13.1656C5.83188 16.5676 8.60078 19.3348 12.0018 19.3348C15.4028 19.3348 18.1701 16.5669 18.1701 13.1649C18.1738 12.9385 18.2664 12.7226 18.4278 12.5638C18.5893 12.4049 18.8067 12.3159 19.0332 12.3159C19.2596 12.3159 19.477 12.4049 19.6385 12.5638C19.7999 12.7226 19.8925 12.9385 19.8962 13.1649C19.8972 17.5201 16.3553 21.062 12.0018 21.062Z" fill="#5CBAFF"/>
</svg>