<svg width="50" height="50" viewBox="0 0 50 50" fill="none" xmlns="http://www.w3.org/2000/svg">
<path d="M25.0772 43.3457C22.5998 43.3457 20.1963 42.8617 17.9322 41.902C15.7461 40.9791 13.7855 39.6543 12.0998 37.9686C10.4141 36.2828 9.08926 34.3223 8.16641 32.1361C7.21074 29.8721 6.72266 27.4686 6.72266 24.9912C6.72266 22.5139 7.20664 20.1104 8.16641 17.8463C9.08926 15.6602 10.4141 13.6996 12.0998 12.0139C13.7855 10.3281 15.7461 9.00332 17.9322 8.08047C20.1963 7.1248 22.5998 6.63672 25.0772 6.63672C27.5545 6.63672 29.958 7.1207 32.2221 8.08047C34.4082 9.00332 36.3687 10.3281 38.0545 12.0139C39.7402 13.6996 41.065 15.6602 41.9879 17.8463C42.9436 20.1104 43.4316 22.5139 43.4316 24.9912C43.4316 27.4686 42.9477 29.8721 41.9879 32.1361C41.065 34.3223 39.7402 36.2828 38.0545 37.9686C36.3687 39.6543 34.4082 40.9791 32.2221 41.902C29.9621 42.8617 27.5545 43.3457 25.0772 43.3457ZM25.0772 8.93359C22.9074 8.93359 20.8074 9.35605 18.8264 10.1969C16.9191 11.0049 15.2006 12.1615 13.724 13.6381C12.2475 15.1146 11.0908 16.8291 10.2828 18.7445C9.44609 20.7215 9.01953 22.8256 9.01953 24.9953C9.01953 27.165 9.44199 29.265 10.2828 31.2461C11.0908 33.1574 12.2475 34.876 13.724 36.3525C15.2006 37.8291 16.915 38.9857 18.8305 39.7938C20.8074 40.6305 22.9115 41.057 25.0813 41.057C27.251 41.057 29.351 40.6346 31.332 39.7938C33.2434 38.9857 34.9619 37.8291 36.4385 36.3525C37.915 34.876 39.0717 33.1615 39.8797 31.2461C40.7164 29.2691 41.143 27.165 41.143 24.9953C41.143 22.8256 40.7205 20.7256 39.8797 18.7445C39.0717 16.8332 37.915 15.1146 36.4385 13.6381C34.9619 12.1615 33.2475 11.0049 31.332 10.1969C29.351 9.35605 27.2469 8.93359 25.0772 8.93359Z" fill="url(#paint0_linear_1933_4669)"/>
<path d="M23.3984 33.366C23.3984 33.5782 23.4402 33.7884 23.5214 33.9844C23.6027 34.1805 23.7217 34.3587 23.8718 34.5087C24.0218 34.6588 24.2 34.7778 24.396 34.859C24.5921 34.9402 24.8022 34.982 25.0145 34.982C25.2267 34.982 25.4368 34.9402 25.6329 34.859C25.8289 34.7778 26.0071 34.6588 26.1571 34.5087C26.3072 34.3587 26.4262 34.1805 26.5075 33.9844C26.5887 33.7884 26.6305 33.5782 26.6305 33.366C26.6305 32.9374 26.4602 32.5264 26.1571 32.2233C25.8541 31.9203 25.443 31.75 25.0145 31.75C24.5859 31.75 24.1748 31.9203 23.8718 32.2233C23.5687 32.5264 23.3984 32.9374 23.3984 33.366Z" fill="url(#paint1_linear_1933_4669)"/>
<path d="M24.8447 30.5901H24.8365C24.209 30.5901 23.7004 30.0856 23.6922 29.4621C23.6758 28.3137 23.7004 26.6239 23.9629 25.9881C24.3361 25.0899 25.2672 24.5772 26.2393 24.0317C27.8061 23.1498 28.8314 22.469 28.8314 21.1114C28.8314 19.0073 27.1211 17.2969 25.017 17.2969C23.2123 17.2969 21.6988 18.5561 21.301 20.2377C21.1779 20.7545 20.7104 21.1114 20.1812 21.1114C19.4471 21.1114 18.8975 20.4305 19.0656 19.7168C19.7014 17.0098 22.1377 14.9918 25.0334 15C28.3803 15.0082 31.116 17.7481 31.1283 21.0949C31.1365 23.9045 28.8684 25.1842 27.3672 26.0291C26.8955 26.2957 26.19 26.6936 26.067 26.9028C25.9686 27.1571 25.9727 28.4367 25.9891 29.4252C26.0014 30.0651 25.4846 30.5901 24.8447 30.5901Z" fill="url(#paint2_linear_1933_4669)"/>
<defs>
<linearGradient id="paint0_linear_1933_4669" x1="6.72266" y1="24.9912" x2="43.4316" y2="24.9912" gradientUnits="userSpaceOnUse">
<stop offset="0.0011" stop-color="#C69F58"/>
<stop offset="0.1621" stop-color="#FFEECF"/>
<stop offset="0.5122" stop-color="#A56F2A"/>
<stop offset="0.9979" stop-color="#C69F58"/>
</linearGradient>
<linearGradient id="paint1_linear_1933_4669" x1="23.3984" y1="33.366" x2="26.6305" y2="33.366" gradientUnits="userSpaceOnUse">
<stop offset="0.0011" stop-color="#C69F58"/>
<stop offset="0.1621" stop-color="#FFEECF"/>
<stop offset="0.5122" stop-color="#A56F2A"/>
<stop offset="0.9979" stop-color="#C69F58"/>
</linearGradient>
<linearGradient id="paint2_linear_1933_4669" x1="19.0352" y1="22.795" x2="31.1283" y2="22.795" gradientUnits="userSpaceOnUse">
<stop offset="0.0011" stop-color="#C69F58"/>
<stop offset="0.1621" stop-color="#FFEECF"/>
<stop offset="0.5122" stop-color="#A56F2A"/>
<stop offset="0.9979" stop-color="#C69F58"/>
</linearGradient>
</defs>
</svg>
