<svg xmlns="http://www.w3.org/2000/svg" width="33" height="34" viewBox="0 0 33 34" fill="none">
  <path d="M31.2775 17.214L20.3258 9.65243V3.91124C20.3258 2.61597 19.6549 1.40822 18.5489 0.673066C17.4429 -0.0620869 16.0286 -0.202116 14.7775 0.287986L2.62912 4.97896C1.03352 5.59159 0 7.04439 0 8.68973V30.0442C0 32.2146 1.83132 34 4.0978 34H28.9022C31.1505 34 33 32.2321 33 30.0442V20.4522C33 19.1744 32.3654 17.9492 31.2775 17.214ZM2.17582 30.0442V8.68973C2.17582 7.90207 2.66539 7.21943 3.40879 6.92187L15.5571 2.23089C15.7929 2.14337 16.0286 2.09086 16.2643 2.09086C16.6269 2.09086 16.9896 2.19588 17.2978 2.40593C17.8236 2.7385 18.1137 3.29861 18.1137 3.89374V31.8821H11.2236V22.4476C11.2236 21.87 10.7341 21.3974 10.1357 21.3974C9.53736 21.3974 9.0478 21.87 9.0478 22.4476V31.8821H4.0978C3.04615 31.8996 2.17582 31.0594 2.17582 30.0442ZM30.8242 30.0442C30.8242 31.0594 29.972 31.8996 28.9022 31.8996H20.3077V12.2255L30.0082 18.9119C30.5159 19.2619 30.8242 19.8396 30.8242 20.4522V30.0442Z" fill="#63BCFF"/>
</svg>