<svg width="50" height="50" viewBox="0 0 50 50" fill="none" xmlns="http://www.w3.org/2000/svg">
<path d="M39.3192 8.77344H10.6829C8.04643 8.77344 5.91016 10.9097 5.91016 13.5462V36.4553C5.91016 39.0917 8.04643 41.228 10.6829 41.228H39.3192C41.9557 41.228 44.092 39.0917 44.092 36.4553V13.5462C44.092 10.9097 41.9557 8.77344 39.3192 8.77344ZM42.1829 36.4553C42.1829 38.036 40.9 39.3189 39.3192 39.3189H10.6829C9.10216 39.3189 7.81925 38.036 7.81925 36.4553V13.5462C7.81925 11.9654 9.10216 10.6825 10.6829 10.6825H39.3192C40.9 10.6825 42.1829 11.9654 42.1829 13.5462V36.4553ZM11.6374 32.6371H22.1374V30.728H11.6374V32.6371ZM11.6374 25.9553H22.1374V24.0462H11.6374V25.9553ZM11.6374 19.2734H22.1374V17.3643H11.6374V19.2734ZM34.7412 25.7739C35.7798 24.8976 36.4556 23.6033 36.4556 22.1371C36.4556 19.5006 34.3193 17.3643 31.6829 17.3643C29.0464 17.3643 26.9102 19.5006 26.9102 22.1371C26.9102 23.6033 27.586 24.8976 28.6245 25.7739C26.4806 26.8869 25.0011 29.1014 25.0011 31.6825C25.0011 32.2094 25.4287 32.6371 25.9556 32.6371C26.4825 32.6371 26.9102 32.2094 26.9102 31.6825C26.9102 29.0461 29.0464 26.9098 31.6829 26.9098C34.3193 26.9098 36.4556 29.0461 36.4556 31.6825C36.4556 32.2094 36.8832 32.6371 37.4102 32.6371C37.9371 32.6371 38.3647 32.2094 38.3647 31.6825C38.3647 29.1014 36.8852 26.8869 34.7412 25.7739ZM31.6829 25.0007C30.1022 25.0007 28.8192 23.7178 28.8192 22.1371C28.8192 20.5563 30.1022 19.2734 31.6829 19.2734C33.2636 19.2734 34.5465 20.5563 34.5465 22.1371C34.5465 23.7178 33.2636 25.0007 31.6829 25.0007Z" fill="url(#paint0_linear_1933_4680)"/>
<defs>
<linearGradient id="paint0_linear_1933_4680" x1="5.91016" y1="25.0007" x2="44.092" y2="25.0007" gradientUnits="userSpaceOnUse">
<stop offset="0.0011" stop-color="#C69F58"/>
<stop offset="0.1621" stop-color="#FFEECF"/>
<stop offset="0.5122" stop-color="#A56F2A"/>
<stop offset="0.9979" stop-color="#C69F58"/>
</linearGradient>
</defs>
</svg>
