<svg xmlns="http://www.w3.org/2000/svg" width="42" height="42" viewBox="0 0 42 42" fill="none">
  <path d="M35.3192 4.77344H6.68288C4.04643 4.77344 1.91016 6.90971 1.91016 9.54617V32.4553C1.91016 35.0917 4.04643 37.228 6.68288 37.228H35.3192C37.9557 37.228 40.092 35.0917 40.092 32.4553V9.54617C40.092 6.90971 37.9557 4.77344 35.3192 4.77344ZM38.1829 32.4553C38.1829 34.036 36.9 35.3189 35.3192 35.3189H6.68288C5.10216 35.3189 3.81925 34.036 3.81925 32.4553V9.54617C3.81925 7.96544 5.10216 6.68253 6.68288 6.68253H35.3192C36.9 6.68253 38.1829 7.96544 38.1829 9.54617V32.4553ZM7.63743 28.6371H18.1374V26.728H7.63743V28.6371ZM7.63743 21.9553H18.1374V20.0462H7.63743V21.9553ZM7.63743 15.2734H18.1374V13.3643H7.63743V15.2734ZM30.7412 21.7739C31.7798 20.8976 32.4556 19.6033 32.4556 18.1371C32.4556 15.5006 30.3193 13.3643 27.6829 13.3643C25.0464 13.3643 22.9102 15.5006 22.9102 18.1371C22.9102 19.6033 23.586 20.8976 24.6245 21.7739C22.4806 22.8869 21.0011 25.1014 21.0011 27.6825C21.0011 28.2094 21.4287 28.6371 21.9556 28.6371C22.4825 28.6371 22.9102 28.2094 22.9102 27.6825C22.9102 25.0461 25.0464 22.9098 27.6829 22.9098C30.3193 22.9098 32.4556 25.0461 32.4556 27.6825C32.4556 28.2094 32.8832 28.6371 33.4102 28.6371C33.9371 28.6371 34.3647 28.2094 34.3647 27.6825C34.3647 25.1014 32.8852 22.8869 30.7412 21.7739ZM27.6829 21.0007C26.1022 21.0007 24.8192 19.7178 24.8192 18.1371C24.8192 16.5563 26.1022 15.2734 27.6829 15.2734C29.2636 15.2734 30.5465 16.5563 30.5465 18.1371C30.5465 19.7178 29.2636 21.0007 27.6829 21.0007Z" fill="#5CBAFF"/>
</svg>