<svg xmlns="http://www.w3.org/2000/svg" width="42" height="42" viewBox="0 0 42 42" fill="none">
  <path d="M21.0772 39.3457C18.5998 39.3457 16.1963 38.8617 13.9322 37.902C11.7461 36.9791 9.78555 35.6543 8.0998 33.9686C6.41406 32.2828 5.08926 30.3223 4.16641 28.1361C3.21074 25.8721 2.72266 23.4686 2.72266 20.9912C2.72266 18.5139 3.20664 16.1104 4.16641 13.8463C5.08926 11.6602 6.41406 9.69961 8.0998 8.01387C9.78555 6.32812 11.7461 5.00332 13.9322 4.08047C16.1963 3.1248 18.5998 2.63672 21.0772 2.63672C23.5545 2.63672 25.958 3.1207 28.2221 4.08047C30.4082 5.00332 32.3687 6.32812 34.0545 8.01387C35.7402 9.69961 37.065 11.6602 37.9879 13.8463C38.9436 16.1104 39.4316 18.5139 39.4316 20.9912C39.4316 23.4686 38.9477 25.8721 37.9879 28.1361C37.065 30.3223 35.7402 32.2828 34.0545 33.9686C32.3687 35.6543 30.4082 36.9791 28.2221 37.902C25.9621 38.8617 23.5545 39.3457 21.0772 39.3457ZM21.0772 4.93359C18.9074 4.93359 16.8074 5.35605 14.8264 6.19688C12.9191 7.00488 11.2006 8.16152 9.72402 9.63809C8.24746 11.1146 7.09082 12.8291 6.28281 14.7445C5.44609 16.7215 5.01953 18.8256 5.01953 20.9953C5.01953 23.165 5.44199 25.265 6.28281 27.2461C7.09082 29.1574 8.24746 30.876 9.72402 32.3525C11.2006 33.8291 12.915 34.9857 14.8305 35.7938C16.8074 36.6305 18.9115 37.057 21.0813 37.057C23.251 37.057 25.351 36.6346 27.332 35.7938C29.2434 34.9857 30.9619 33.8291 32.4385 32.3525C33.915 30.876 35.0717 29.1615 35.8797 27.2461C36.7164 25.2691 37.143 23.165 37.143 20.9953C37.143 18.8256 36.7205 16.7256 35.8797 14.7445C35.0717 12.8332 33.915 11.1146 32.4385 9.63809C30.9619 8.16152 29.2475 7.00488 27.332 6.19688C25.351 5.35605 23.2469 4.93359 21.0772 4.93359Z" fill="#63BCFF"/>
  <path d="M19.3984 29.366C19.3984 29.5782 19.4402 29.7884 19.5214 29.9844C19.6027 30.1805 19.7217 30.3587 19.8718 30.5087C20.0218 30.6588 20.2 30.7778 20.396 30.859C20.5921 30.9402 20.8022 30.982 21.0145 30.982C21.2267 30.982 21.4368 30.9402 21.6329 30.859C21.8289 30.7778 22.0071 30.6588 22.1571 30.5087C22.3072 30.3587 22.4262 30.1805 22.5075 29.9844C22.5887 29.7884 22.6305 29.5782 22.6305 29.366C22.6305 28.9374 22.4602 28.5264 22.1571 28.2233C21.8541 27.9203 21.443 27.75 21.0145 27.75C20.5859 27.75 20.1748 27.9203 19.8718 28.2233C19.5687 28.5264 19.3984 28.9374 19.3984 29.366Z" fill="#63BCFF"/>
  <path d="M20.8447 26.5901H20.8365C20.209 26.5901 19.7004 26.0856 19.6922 25.4621C19.6758 24.3137 19.7004 22.6239 19.9629 21.9881C20.3361 21.0899 21.2672 20.5772 22.2393 20.0317C23.8061 19.1498 24.8314 18.469 24.8314 17.1114C24.8314 15.0073 23.1211 13.2969 21.017 13.2969C19.2123 13.2969 17.6988 14.5561 17.301 16.2377C17.1779 16.7545 16.7104 17.1114 16.1812 17.1114C15.4471 17.1114 14.8975 16.4305 15.0656 15.7168C15.7014 13.0098 18.1377 10.9918 21.0334 11C24.3803 11.0082 27.116 13.7481 27.1283 17.0949C27.1365 19.9045 24.8684 21.1842 23.3672 22.0291C22.8955 22.2957 22.19 22.6936 22.067 22.9028C21.9686 23.1571 21.9727 24.4367 21.9891 25.4252C22.0014 26.0651 21.4846 26.5901 20.8447 26.5901Z" fill="#63BCFF"/>
</svg>