<svg width="50" height="50" viewBox="0 0 50 50" fill="none" xmlns="http://www.w3.org/2000/svg">
<path d="M28.2305 7.98047C29.1708 7.9845 30.0921 8.25084 30.8896 8.74902C31.687 9.24719 32.3301 9.95766 32.7461 10.8008L33.7305 12.8213H37.2676C38.9723 12.8242 40.6066 13.502 41.8125 14.707C43.0184 15.9122 43.6972 17.5461 43.7012 19.251V35.5889C43.6995 37.2956 43.0211 38.9326 41.8145 40.1396C40.6078 41.3466 38.9713 42.0251 37.2646 42.0273H12.9053C11.1986 42.0251 9.56211 41.3466 8.35547 40.1396C7.14881 38.9326 6.47042 37.2956 6.46875 35.5889V19.251C6.47269 17.5458 7.15203 15.9112 8.3584 14.7061C9.5648 13.5009 11.2001 12.8235 12.9053 12.8213H16.4414L17.4268 10.8008C17.8429 9.95759 18.4857 9.24717 19.2832 8.74902C20.0807 8.25089 21.0011 7.9845 21.9414 7.98047H28.2305ZM21.9453 10.4961C21.4768 10.4983 21.0183 10.6314 20.6211 10.8799C20.2238 11.1284 19.9033 11.4829 19.6963 11.9033L18.3633 14.6328C18.2598 14.8449 18.0986 15.0243 17.8984 15.1494C17.6984 15.2745 17.4673 15.3406 17.2314 15.3408H12.9053C11.8682 15.3425 10.8736 15.7547 10.1396 16.4873C9.40575 17.22 8.99166 18.2139 8.98828 19.251V35.5957C8.98945 36.6342 9.40262 37.6297 10.1367 38.3643C10.8709 39.0988 11.8667 39.512 12.9053 39.5137H37.2676C38.306 39.5119 39.3011 39.0987 40.0352 38.3643C40.7693 37.6297 41.1824 36.6342 41.1836 35.5957V19.2578C41.1819 18.2196 40.7683 17.2244 40.0342 16.4902C39.3002 15.7563 38.3056 15.3426 37.2676 15.3408H32.9453C32.71 15.3399 32.4796 15.2735 32.2803 15.1484C32.081 15.0234 31.9205 14.8443 31.8174 14.6328L30.4844 11.9033C30.2774 11.4829 29.9569 11.1284 29.5596 10.8799C29.1624 10.6314 28.7038 10.4984 28.2354 10.4961H21.9453ZM25.085 18.8115C27.2677 18.8137 29.3606 19.6823 30.9043 21.2256C32.4478 22.7688 33.3166 24.8613 33.3193 27.0439C33.3197 28.6725 32.8371 30.2648 31.9326 31.6191C31.0281 32.9735 29.7418 34.0288 28.2373 34.6523C26.7328 35.2759 25.0769 35.4395 23.4795 35.1221C21.8823 34.8046 20.4153 34.0204 19.2637 32.8691C18.112 31.7178 17.3277 30.2505 17.0098 28.6533C16.6919 27.0561 16.8544 25.4002 17.4775 23.8955C18.1007 22.3908 19.1557 21.1041 20.5098 20.1992C21.8639 19.2944 23.4563 18.8115 25.085 18.8115ZM27.2715 21.7646C26.2276 21.3323 25.0789 21.2191 23.9707 21.4395C22.8624 21.6599 21.844 22.204 21.0449 23.0029C20.2458 23.802 19.701 24.8204 19.4805 25.9287C19.26 27.0371 19.3732 28.1864 19.8057 29.2305C20.2381 30.2745 20.9706 31.1671 21.9102 31.7949C22.8498 32.4228 23.9548 32.7578 25.085 32.7578V32.7686C26.6017 32.7669 28.0554 32.1624 29.127 31.0889C30.1985 30.0154 30.7999 28.5607 30.7988 27.0439C30.7988 25.9138 30.4638 24.8088 29.8359 23.8691C29.2081 22.9295 28.3156 22.1971 27.2715 21.7646ZM14.9883 17.9844C15.3224 17.9844 15.6426 18.1173 15.8789 18.3535C16.1151 18.5898 16.248 18.9101 16.248 19.2441C16.248 19.5783 16.1152 19.8994 15.8789 20.1357C15.6427 20.3718 15.3223 20.5039 14.9883 20.5039H12.6777C12.3438 20.5038 12.0233 20.3718 11.7871 20.1357C11.5508 19.8994 11.418 19.5783 11.418 19.2441C11.418 18.9101 11.5509 18.5897 11.7871 18.3535C12.0233 18.1173 12.3437 17.9845 12.6777 17.9844H14.9883Z" fill="url(#paint0_linear_1933_4689)"/>
<defs>
<linearGradient id="paint0_linear_1933_4689" x1="6.46875" y1="25.0039" x2="43.7012" y2="25.0039" gradientUnits="userSpaceOnUse">
<stop offset="0.0011" stop-color="#C69F58"/>
<stop offset="0.1621" stop-color="#FFEECF"/>
<stop offset="0.5122" stop-color="#A56F2A"/>
<stop offset="0.9979" stop-color="#C69F58"/>
</linearGradient>
</defs>
</svg>
