<svg xmlns="http://www.w3.org/2000/svg" width="42" height="42" viewBox="0 0 42 42" fill="none">
  <path d="M33.2673 8.82097H29.7309L28.746 6.80077C28.33 5.9575 27.687 5.24689 26.8895 4.74871C26.092 4.25053 25.1714 3.9845 24.231 3.98047H17.9415C17.0012 3.9845 16.0806 4.25053 15.2831 4.74871C14.4855 5.24689 13.8426 5.9575 13.4265 6.80077L12.4416 8.82097H8.90525C7.19995 8.82319 5.56505 9.50116 4.35863 10.7064C3.15222 11.9116 2.47264 13.5459 2.46875 15.2512V31.5892C2.47042 33.2959 3.14901 34.9323 4.35567 36.1394C5.56233 37.3464 7.1985 38.0255 8.90525 38.0278H33.2652C34.972 38.0255 36.6082 37.3464 37.8148 36.1394C39.0215 34.9323 39.7001 33.2959 39.7017 31.5892V15.2512C39.6979 13.5462 39.0186 11.9123 37.8126 10.7071C36.6066 9.50196 34.9723 8.82374 33.2673 8.82097ZM37.1838 31.5955C37.1827 32.634 36.7698 33.6298 36.0356 34.3644C35.3014 35.099 34.3059 35.5124 33.2673 35.5141H8.90525C7.86668 35.5124 6.87115 35.099 6.13697 34.3644C5.40278 33.6298 4.98986 32.634 4.98875 31.5955V15.2512C4.99208 14.2141 5.40598 13.2205 6.13992 12.4877C6.87387 11.7549 7.86813 11.3426 8.90525 11.341H13.2312C13.4673 11.3409 13.6985 11.2745 13.8986 11.1493C14.0987 11.0242 14.2597 10.8454 14.3631 10.6333L15.6966 7.90327C15.9036 7.48281 16.2238 7.12839 16.6211 6.87985C17.0184 6.6313 17.4771 6.49846 17.9457 6.49627H24.2353C24.7039 6.49846 25.1626 6.6313 25.5599 6.87985C25.9572 7.12839 26.2774 7.48281 26.4844 7.90327L27.8178 10.6333C27.921 10.8448 28.0813 11.0231 28.2806 11.1482C28.4799 11.2733 28.7102 11.3401 28.9455 11.341H33.2673C34.3056 11.3426 35.3008 11.7558 36.0349 12.4899C36.769 13.2241 37.1822 14.2193 37.1838 15.2575V31.5955Z" fill="#5CBAFF"/>
  <path d="M21.0848 14.8118C19.4561 14.8118 17.8641 15.2947 16.5099 16.1996C15.1558 17.1045 14.1004 18.3906 13.4773 19.8953C12.8541 21.4 12.6912 23.0557 13.009 24.653C13.3269 26.2504 14.1114 27.7175 15.2631 28.869C16.4149 30.0205 17.8823 30.8045 19.4797 31.122C21.0771 31.4395 22.7327 31.2761 24.2373 30.6526C25.7418 30.029 27.0277 28.9733 27.9322 27.619C28.8367 26.2646 29.3193 24.6724 29.3189 23.0438C29.3161 20.861 28.4476 18.7685 26.904 17.2252C25.3603 15.6819 23.2675 14.814 21.0848 14.8118ZM21.0848 28.7579C19.9546 28.7579 18.8499 28.4227 17.9102 27.7949C16.9705 27.167 16.2381 26.2746 15.8056 25.2305C15.3731 24.1864 15.26 23.0374 15.4805 21.929C15.7009 20.8206 16.2452 19.8024 17.0443 19.0033C17.8434 18.2042 18.8616 17.6599 19.97 17.4395C21.0784 17.219 22.2273 17.3321 23.2715 17.7646C24.3156 18.1971 25.208 18.9295 25.8359 19.8692C26.4637 20.8089 26.7989 21.9136 26.7989 23.0438C26.8 24.5606 26.1987 26.0157 25.1271 27.0892C24.0556 28.1627 22.6015 28.7667 21.0848 28.7684V28.7579ZM10.988 13.9844H8.67797C8.3438 13.9844 8.02331 14.1171 7.78701 14.3534C7.55072 14.5897 7.41797 14.9102 7.41797 15.2444C7.41797 15.5785 7.55072 15.899 7.78701 16.1353C8.02331 16.3716 8.3438 16.5044 8.67797 16.5044H10.988C11.3221 16.5044 11.6426 16.3716 11.8789 16.1353C12.1152 15.899 12.248 15.5785 12.248 15.2444C12.248 14.9102 12.1152 14.5897 11.8789 14.3534C11.6426 14.1171 11.3221 13.9844 10.988 13.9844Z" fill="#5CBAFF"/>
</svg>