<svg width="50" height="50" viewBox="0 0 50 50" fill="none" xmlns="http://www.w3.org/2000/svg">
<path d="M27.3739 21.186C28.4376 19.7792 29.0429 18.0161 29.0429 16.1779C29.0429 11.6763 25.4666 8 21.0467 8C16.6268 8 13.0505 11.6763 13.0505 16.1779C13.0505 17.9973 13.6557 19.7417 14.7011 21.1672C11.9868 23.4368 9.18076 28.8012 8.42882 31.6334C7.93365 33.4904 7.86029 35.4035 8.24543 37.1292C8.41048 37.9357 9.1991 38.4609 9.98771 38.2733C10.7763 38.1045 11.2898 37.298 11.1064 36.4914C10.8497 35.2535 10.9047 33.8092 11.2715 32.4212C12.1151 29.2701 15.0128 24.6935 16.6451 23.418C17.9839 24.1683 19.4878 24.5622 21.0467 24.5622C22.5872 24.5622 24.0911 24.1683 25.4299 23.418C27.0805 24.7872 30.2533 29.8516 30.8952 32.0273C31.5738 34.3344 31.2803 36.8478 30.1249 38.4421C29.373 39.4737 28.3459 39.9989 27.0805 39.9989H15.0128C14.2059 39.9989 13.5457 40.6742 13.5457 41.4995C13.5457 42.3248 14.2059 43 15.0128 43H27.0805C29.2629 43 31.1886 42.0059 32.4908 40.224C34.1964 37.8607 34.6732 34.3907 33.7195 31.1458C33.151 29.2701 30.1066 23.5681 27.3739 21.186ZM21.0467 11.0011C23.8343 11.0011 26.1085 13.3269 26.1085 16.1779C26.1085 17.8848 25.2832 19.4791 23.9077 20.4544C23.0641 21.0359 22.0737 21.3548 21.0467 21.3548C20.0196 21.3548 19.0293 21.0359 18.1856 20.4544C16.8102 19.4979 15.9849 17.8848 15.9849 16.1779C15.9849 13.3269 18.259 11.0011 21.0467 11.0011ZM40.3035 26.2878C39.3499 24.2621 38.0477 22.5552 36.6356 21.4298C37.8277 19.9855 38.5062 18.1286 38.5062 16.1779C38.5062 11.6763 34.9116 8 30.51 8C29.7031 8 29.0429 8.67524 29.0429 9.50054C29.0429 10.3258 29.7031 11.0011 30.51 11.0011C33.2977 11.0011 35.5719 13.3269 35.5719 16.1779C35.5719 17.7722 34.8566 19.2728 33.6462 20.2481C33.2243 20.3982 32.8759 20.717 32.7292 21.186C32.4724 21.9737 32.8759 22.8178 33.6462 23.0991C34.7832 23.493 36.4705 25.0498 37.6809 27.6007C38.6896 29.739 40.0651 34.2219 38.0111 40.0552C37.736 40.843 38.1211 41.687 38.8914 41.9684C39.0564 42.0247 39.2215 42.0622 39.3866 42.0622C39.9918 42.0622 40.542 41.687 40.762 41.0681C43.1829 34.1843 41.514 28.8574 40.3035 26.2878Z" fill="url(#paint0_linear_1933_4984)"/>
<defs>
<linearGradient id="paint0_linear_1933_4984" x1="8" y1="25.5" x2="42" y2="25.5" gradientUnits="userSpaceOnUse">
<stop offset="0.0011" stop-color="#C69F58"/>
<stop offset="0.1621" stop-color="#FFEECF"/>
<stop offset="0.5122" stop-color="#A56F2A"/>
<stop offset="0.9979" stop-color="#C69F58"/>
</linearGradient>
</defs>
</svg>
