<svg width="50" height="50" viewBox="0 0 50 50" fill="none" xmlns="http://www.w3.org/2000/svg">
<path d="M40.2775 25.214L29.3258 17.6524V11.9112C29.3258 10.616 28.6549 9.40822 27.5489 8.67307C26.4429 7.93791 25.0286 7.79788 23.7775 8.28799L11.6291 12.979C10.0335 13.5916 9 15.0444 9 16.6897V38.0442C9 40.2146 10.8313 42 13.0978 42H37.9022C40.1505 42 42 40.2321 42 38.0442V28.4522C42 27.1744 41.3654 25.9492 40.2775 25.214ZM11.1758 38.0442V16.6897C11.1758 15.9021 11.6654 15.2194 12.4088 14.9219L24.5571 10.2309C24.7929 10.1434 25.0286 10.0909 25.2643 10.0909C25.6269 10.0909 25.9896 10.1959 26.2978 10.4059C26.8236 10.7385 27.1137 11.2986 27.1137 11.8937V39.8821H20.2236V30.4476C20.2236 29.87 19.7341 29.3974 19.1357 29.3974C18.5374 29.3974 18.0478 29.87 18.0478 30.4476V39.8821H13.0978C12.0462 39.8996 11.1758 39.0594 11.1758 38.0442ZM39.8242 38.0442C39.8242 39.0594 38.972 39.8996 37.9022 39.8996H29.3077V20.2255L39.0082 26.9119C39.5159 27.2619 39.8242 27.8396 39.8242 28.4522V38.0442Z" fill="url(#paint0_linear_1933_4965)"/>
<defs>
<linearGradient id="paint0_linear_1933_4965" x1="9" y1="25" x2="42" y2="25" gradientUnits="userSpaceOnUse">
<stop offset="0.0011" stop-color="#C69F58"/>
<stop offset="0.1621" stop-color="#FFEECF"/>
<stop offset="0.5122" stop-color="#A56F2A"/>
<stop offset="0.9979" stop-color="#C69F58"/>
</linearGradient>
</defs>
</svg>
