<svg xmlns="http://www.w3.org/2000/svg" width="38" height="38" viewBox="0 0 38 38" fill="none">
  <path d="M20.3739 14.186C21.4376 12.7792 22.0429 11.0161 22.0429 9.17792C22.0429 4.67631 18.4666 1 14.0467 1C9.62675 1 6.05048 4.67631 6.05048 9.17792C6.05048 10.9973 6.65569 12.7417 7.70107 14.1672C4.98676 16.4368 2.18076 21.8012 1.42882 24.6334C0.933647 26.4904 0.860288 28.4035 1.24543 30.1292C1.41048 30.9357 2.1991 31.4609 2.98771 31.2733C3.77633 31.1045 4.28985 30.298 4.10645 29.4914C3.84969 28.2535 3.90471 26.8092 4.27151 25.4212C5.11514 22.2701 8.01284 17.6935 9.64509 16.418C10.9839 17.1683 12.4878 17.5622 14.0467 17.5622C15.5872 17.5622 17.0911 17.1683 18.4299 16.418C20.0805 17.7872 23.2533 22.8516 23.8952 25.0273C24.5738 27.3344 24.2803 29.8478 23.1249 31.4421C22.373 32.4737 21.3459 32.9989 20.0805 32.9989H8.01284C7.20589 32.9989 6.54565 33.6742 6.54565 34.4995C6.54565 35.3248 7.20589 36 8.01284 36H20.0805C22.2629 36 24.1886 35.0059 25.4908 33.224C27.1964 30.8607 27.6732 27.3907 26.7195 24.1458C26.151 22.2701 23.1066 16.5681 20.3739 14.186ZM14.0467 4.00107C16.8343 4.00107 19.1085 6.3269 19.1085 9.17792C19.1085 10.8848 18.2832 12.4791 16.9077 13.4544C16.0641 14.0359 15.0737 14.3548 14.0467 14.3548C13.0196 14.3548 12.0293 14.0359 11.1856 13.4544C9.81015 12.4979 8.98486 10.8848 8.98486 9.17792C8.98486 6.3269 11.259 4.00107 14.0467 4.00107ZM33.3035 19.2878C32.3499 17.2621 31.0477 15.5552 29.6356 14.4298C30.8277 12.9855 31.5062 11.1286 31.5062 9.17792C31.5062 4.67631 27.9116 1 23.51 1C22.7031 1 22.0429 1.67524 22.0429 2.50054C22.0429 3.32583 22.7031 4.00107 23.51 4.00107C26.2977 4.00107 28.5719 6.3269 28.5719 9.17792C28.5719 10.7722 27.8566 12.2728 26.6462 13.2481C26.2243 13.3982 25.8759 13.717 25.7292 14.186C25.4724 14.9737 25.8759 15.8178 26.6462 16.0991C27.7832 16.493 29.4705 18.0498 30.6809 20.6007C31.6896 22.739 33.0651 27.2219 31.0111 33.0552C30.736 33.843 31.1211 34.687 31.8914 34.9684C32.0564 35.0247 32.2215 35.0622 32.3866 35.0622C32.9918 35.0622 33.542 34.687 33.762 34.0681C36.1829 27.1843 34.514 21.8574 33.3035 19.2878Z" fill="#63BCFF"/>
</svg>