<svg width="76" height="78" viewBox="0 0 76 78" fill="none" xmlns="http://www.w3.org/2000/svg">
<path d="M73.0087 7.66671C74.6589 7.66671 76 9.01465 76 10.6733C76 10.9088 75.9701 11.1493 75.9152 11.3798L73.6867 20.66C73.3078 22.2335 71.9068 23.3459 70.2965 23.3459H60.1658C58.5156 23.3459 57.1745 21.9979 57.1745 20.3393C57.1745 20.1038 57.2044 19.8633 57.2592 19.6328L59.4878 10.3526C59.8667 8.77914 61.2676 7.66671 62.878 7.66671H73.0087ZM61.5419 55.7716C63.1921 55.7716 64.5332 57.1195 64.5332 58.7781C64.5332 59.0136 64.5033 59.2541 64.4484 59.4846L62.2199 68.7649C61.841 70.3383 60.44 71.4507 58.8297 71.4507H48.699C47.0488 71.4507 45.7077 70.1028 45.7077 68.4442C45.7077 68.2087 45.7376 67.9681 45.7924 67.7376L48.021 58.4574C48.3999 56.884 49.8008 55.7716 51.4112 55.7716H61.5419ZM48.3949 0C50.3243 0 51.8848 1.56842 51.8848 3.50764C51.8848 3.76821 51.8549 4.02878 51.8 4.28434L46.4854 27.7806C46.2411 28.8579 46.9142 29.9352 47.9861 30.1808C48.1307 30.2159 48.2802 30.2309 48.4298 30.2309H67.1855C69.1149 30.2309 70.6754 31.7993 70.6754 33.7385C70.6754 34.0141 70.6455 34.2847 70.5807 34.5553L68.0081 45.3789C67.5245 47.4083 65.7198 48.8414 63.6458 48.8414H43.883C42.487 48.8414 41.2755 49.8136 40.9664 51.1815L35.6767 74.4924C35.2131 76.5418 33.3933 78 31.3044 78H17.2201C15.2907 78 13.7303 76.4316 13.7303 74.4924C13.7303 74.2268 13.7602 73.9662 13.82 73.7056L18.8056 51.9131C19.1147 50.5652 18.2771 49.2223 16.936 48.9116C16.7515 48.8715 16.567 48.8465 16.3776 48.8465H3.4899C1.56048 48.8465 0 47.278 0 45.3388C0 45.0632 0.0348975 44.7826 0.0997098 44.517L2.70218 33.6934C3.19076 31.669 4.99055 30.2409 7.06455 30.2409H21.9963C23.4023 30.2409 24.6237 29.2538 24.9179 27.8708L30.1627 3.56277C30.6114 1.48824 32.4361 0.010024 34.55 0.010024H48.4049L48.3949 0Z" fill="#202B4B"/>
</svg>
